Coordinates
version=1
nRows=8
nColumns=34
inDegrees=yes

Units are S.I. units (second, meters, Newtons, ...)
If the header above contains a line with 'inDegrees', this indicates whether rotational values are in degrees (yes) or radians (no).

endheader
time	pelvis_tilt	pelvis_list	pelvis_rotation	pelvis_tx	pelvis_ty	pelvis_tz	hip_flexion_r	hip_adduction_r	hip_rotation_r	knee_angle_r	ankle_angle_r	subtalar_angle_r	mtp_angle_r	hip_flexion_l	hip_adduction_l	hip_rotation_l	knee_angle_l	ankle_angle_l	subtalar_angle_l	mtp_angle_l	lumbar_extension	lumbar_bending	lumbar_rotation	arm_flex_r	arm_add_r	arm_rot_r	elbow_flex_r	pro_sup_r	arm_flex_l	arm_add_l	arm_rot_l	elbow_flex_l	pro_sup_l
      0.00000000	     -3.91502551	      0.38448699	     -3.42772090	      1.79866691	      0.88248505	     -0.13583520	      5.86647747	     -4.07240179	     -2.35549100	     11.02525006	      3.41637664	    -14.54033451	      0.00000000	      2.25226276	     -5.07309155	     -6.47194348	      5.91747023	      5.76015385	     -6.13536057	      0.00000000	     -9.57028111	      1.65778687	     -3.60466936	     17.69196252	     -3.97168199	     42.17096279	     87.55673326	    100.00918302	      9.99705107	     -5.83322284	     28.14397223	     90.39604536	     99.68059564
      0.01666670	     -5.81382238	      0.92109406	     -3.47219168	      1.79976273	      0.88162271	     -0.13639093	      8.39705726	     -4.43540943	     -1.43574862	     11.67743579	      7.40811365	    -11.80858190	      0.00000000	      5.51181665	     -4.33386324	     -6.47648121	      7.00558946	      6.98384125	     -4.41772830	      0.00000000	     -7.05054975	      1.79164929	     -3.39155398	     16.20729323	     -3.66771710	     40.16409132	     86.68586214	     99.40436863	      9.30077701	     -6.13295673	     27.96031262	     90.66813163	     98.83950606
      0.03333330	     -5.75824214	      1.55308781	     -3.77376561	      1.79926524	      0.88242373	     -0.13564774	      8.16543334	     -5.25018450	     -1.68451078	     11.02789275	      7.93850175	    -10.92241257	      0.00000000	      5.32622920	     -3.89348479	     -7.16637330	      6.67993680	      6.66187793	     -4.21704465	      0.00000000	     -7.04845304	      1.14437085	     -2.75784760	     16.00479245	     -3.80168193	     39.97268754	     85.86799587	     99.17744525	      9.83590370	     -6.23621781	     27.61245810	     89.42829906	     97.97674807
      0.05000000	     -5.18819846	      1.96077718	     -3.79400673	      1.79908080	      0.88373592	     -0.13547262	      7.29605177	     -5.79417045	     -1.52106902	     10.49019553	      8.38023959	    -10.59435766	      0.00000000	      4.23977309	     -3.37540952	     -6.86684426	      5.92344766	      6.35403751	     -4.86429096	      0.00000000	     -7.80271928	      0.59219936	     -2.34470093	     15.96684229	     -4.03901617	     39.99137434	     85.43735276	     99.07027321	     10.64593363	     -6.51234283	     27.66293282	     88.75256602	     97.40825290
      0.06666670	     -4.73031068	      2.14196138	     -3.73720215	      1.79931014	      0.88466549	     -0.13590917	      6.48566573	     -5.98680884	     -1.31634209	      9.86198078	      8.60834396	    -10.57810286	      0.00000000	      3.38229006	     -3.06117509	     -6.39783433	      5.21184242	      6.13359485	     -5.49877938	      0.00000000	     -8.39130650	      0.40457266	     -2.10949774	     16.02917643	     -4.17283762	     40.19256178	     85.70461469	     98.97920004	     11.21508615	     -6.64979003	     28.24663343	     88.46330843	     97.02918270
      0.08333330	     -4.29387881	      2.20420733	     -3.60842330	      1.79945695	      0.88586391	     -0.13675264	      5.68665034	     -6.02440021	     -1.06938202	      9.24887803	      8.66842918	    -10.72126429	      0.00000000	      2.67790959	     -2.86006130	     -5.87520281	      4.72771817	      5.94773215	     -6.03480988	      0.00000000	     -8.87416082	      0.34974338	     -1.98518118	     16.10144275	     -4.24682460	     40.28790289	     86.18875950	     98.84248346	     11.72890015	     -6.75743432	     29.01749688	     88.40134581	     96.76675855
      0.10000000	     -4.34791376	      2.23566830	     -3.55866505	      1.79943240	      0.88625337	     -0.13753000	      5.57936004	     -6.01879913	     -0.89550215	      8.87451490	      8.77947182	    -10.73439454	      0.00000000	      2.65875896	     -2.74642659	     -5.70623070	      4.50980071	      5.94919896	     -6.03265512	      0.00000000	     -8.84339050	      0.35297756	     -1.99599558	     16.21038417	     -4.08825129	     40.32779758	     86.33264665	     98.82347964	     11.84005361	     -6.57424666	     29.18143201	     88.46673408	     96.74783090
      0.11666670	     -3.76468897	      2.12431820	     -3.39993894	      1.79974393	      0.88686816	     -0.13825289	      4.46485182	     -5.88310783	     -0.76022509	      8.07510204	      8.33904502	    -11.37769892	      0.00000000	      1.73815589	     -2.72006834	     -5.09683341	      3.91089795	      5.47916238	     -6.64454997	      0.00000000	     -9.56610956	      0.47007491	     -1.91251033	     16.37661715	     -4.36669096	     40.66593854	     87.24178308	     98.60789099	     12.39033354	     -6.81791018	     30.41660471	     88.60843887	     96.59187126
